<?xml version="1.0" encoding="UTF-8"?>
<svg width="578px" height="30px" viewBox="0 0 578 30" version="1.1" xmlns="http://www.w3.org/2000/svg" xmlns:xlink="http://www.w3.org/1999/xlink">
    <!-- Generator: sketchtool 49.1 (51147) - http://www.bohemiancoding.com/sketch -->
    <title>A4711D7C-1C13-4352-9A17-5EB8B25BE217</title>
    <desc>Created with sketchtool.</desc>
    <defs>
        <polygon id="path-1" points="1.03203745 0 20.3593736 0 20.3593736 30 1.03203745 30"></polygon>
        <polygon id="path-3" points="0.627806383 0 19.9477638 0 19.9477638 30 0.627806383 30"></polygon>
        <polygon id="path-5" points="0.516879574 0 19.8294583 0 19.8294583 30 0.516879574 30"></polygon>
        <polygon id="path-7" points="0.105269787 0 19.4116996 0 19.4116996 30 0.105269787 30"></polygon>
        <polygon id="path-9" points="0.798500851 0 27.4996413 0 27.4996413 30 0.798500851 30"></polygon>
        <polygon id="path-11" points="0.101088511 0 21.8941481 0 21.8941481 30 0.101088511 30"></polygon>
        <polygon id="path-13" points="0.237225957 0 26.9309877 0 26.9309877 30 0.237225957 30"></polygon>
        <polygon id="path-15" points="0.303142553 0.49775 24.5945149 0.49775 24.5945149 29.51525 0.303142553 29.51525"></polygon>
    </defs>
    <g id="IEEE-–-Standards-UI" stroke="none" stroke-width="1" fill="none" fill-rule="evenodd">
        <g id="IEEE-Standards---L3-Landing-Page-(News-Wire)" transform="translate(-40.000000, -67.000000)">
            <g id="Desktop-Stacked-Navigation" transform="translate(0.000000, 40.000000)">
                <g id="IEEE-Standards-Logo" transform="translate(40.000000, 27.000000)">
                    <path d="M7.6272634,0.741875 C7.50182511,6.365625 7.42188894,11.989375 7.42188894,17.610625 C7.42188894,23.526875 7.50182511,25.393125 7.69736128,29.145625 L7.46862085,29.386875 C4.13343787,29.386875 3.33407617,29.386875 0.330935745,29.515625 L0.123101702,29.265625 C0.281744255,25.033125 0.375208085,22.548125 0.375208085,17.736875 C0.375208085,7.343125 0.24854,5.256875 0.000122978723,0.866875 L0.169833617,0.620625 C3.05122511,0.664375 3.96987617,0.664375 7.42188894,0.498125 L7.6272634,0.741875" id="Fill-1" fill="#006699"></path>
                    <path d="M32.0315302,24.17075 L31.7499089,29.1445 L31.4252451,29.387 L13.7876366,29.387 L13.5871813,29.22575 C13.71016,24.947 13.7876366,22.3795 13.7876366,17.24575 C13.7876366,6.33075 13.71016,4.812 13.4629728,0.86575 L13.71016,0.62075 L31.3022664,0.62075 L31.5076409,0.7795 L31.2247898,5.512 L31.0206451,5.752 C26.1765132,5.62825 25.2566323,5.62825 20.727326,5.62825 L20.727326,12.11075 L30.4278877,11.947 L30.622194,12.19325 L30.3823855,16.80075 L30.0970749,17.04325 L20.727326,17.04325 L20.8072621,24.17075 C25.9280962,24.17075 27.0558111,24.13075 31.7818834,23.88825 L32.0315302,24.17075" id="Fill-3" fill="#006699"></path>
                    <path d="M54.545983,24.17075 L54.2643617,29.1445 L53.9470766,29.387 L36.3057787,29.387 L36.1102426,29.22575 C36.2270723,24.947 36.3057787,22.3795 36.3057787,17.24575 C36.3057787,6.33075 36.2270723,4.812 35.9872638,0.86575 L36.2270723,0.62075 L53.8327064,0.62075 L54.0245532,0.7795 L53.7417021,5.512 L53.546166,5.752 C48.6860468,5.62825 47.7637064,5.62825 43.2417787,5.62825 L43.2417787,12.11075 L52.9423404,11.947 L53.1378766,12.19325 L52.910366,16.80075 L52.621366,17.04325 L43.2417787,17.04325 L43.3192553,24.17075 C48.453617,24.17075 49.5739532,24.13075 54.3110936,23.88825 L54.545983,24.17075" id="Fill-5" fill="#006699"></path>
                    <path d="M77.0670766,24.17075 L76.7829957,29.1445 L76.4595617,29.387 L58.8182638,29.387 L58.6178085,29.22575 C58.7444766,24.947 58.8182638,22.3795 58.8182638,17.24575 C58.8182638,6.33075 58.7444766,4.812 58.5009787,0.86575 L58.7444766,0.62075 L76.3402723,0.62075 L76.5431872,0.7795 L76.2566468,5.512 L76.0537319,5.752 C71.2120596,5.62825 70.2897191,5.62825 65.7567234,5.62825 L65.7567234,12.11075 L75.452366,11.947 L75.6626596,12.19325 L75.4179319,16.80075 L75.1313915,17.04325 L65.7567234,17.04325 L65.8403489,24.17075 C70.9661021,24.17075 72.0913574,24.13075 76.8174298,23.88825 L77.0670766,24.17075" id="Fill-7" fill="#006699"></path>
                    <g id="Group-11" transform="translate(91.004255, 0.000375)">
                        <mask id="mask-2" fill="white">
                            <use xlink:href="#path-1"></use>
                        </mask>
                        <g id="Clip-10"></g>
                        <path d="M14.2620885,12.2685 C15.218863,12.72225 16.2678715,13.2135 17.3488545,14.02975 C19.4776162,15.69975 20.3593736,18.17975 20.3593736,20.50225 C20.3593736,23.9635 18.9094545,27.0685 15.5435268,28.741 C13.1368332,29.87975 10.0943396,30.001 8.88668851,30.001 C5.88477787,30.001 3.51743745,29.3085 2.59509702,28.97975 C2.15852255,28.8585 1.71333957,28.65225 1.26938638,28.496 L1.03203745,28.15975 L1.31365872,22.41475 L1.71333957,22.296 C2.87425872,23.2285 4.91693532,24.861 8.56817362,24.861 C12.0558502,24.861 13.3741821,23.031 13.3741821,21.48975 C13.3741821,19.3235 11.2441906,18.29725 8.49069702,17.1235 L7.16744596,16.51225 C4.91693532,15.411 1.15009702,13.621 1.15009702,8.691 C1.15009702,4.326 3.76216511,-0.00025 11.3007609,-0.00025 C15.1844289,-0.00025 16.987297,0.77975 18.7163779,1.51475 L18.9094545,1.79975 L18.5860204,7.13725 L18.2379906,7.29975 C16.7450289,6.28475 14.9372417,5.01725 11.8947481,5.01725 C9.25562468,5.01725 8.08978638,6.611 8.08978638,7.87475 C8.08978638,9.7035 9.84961191,10.43975 13.2155396,11.866 L14.2620885,12.2685" id="Fill-9" fill="#006699" mask="url(#mask-2)"></path>
                    </g>
                    <path d="M125.946938,5.837 C125.865772,8.4445 125.823959,9.7045 125.823959,11.947 C125.823959,17.69325 125.912504,23.39075 126.10804,29.0995 L125.865772,29.347 C122.542887,29.347 121.744755,29.387 118.773589,29.5145 L118.53378,29.26575 C118.852295,19.1545 118.852295,16.58825 118.815402,5.91325 L112.282772,6.08575 L112.078627,5.837 L112.362708,0.82325 L112.644329,0.57825 L132.482027,0.57825 L132.680023,0.702 L132.400861,5.7945 L132.164742,6.00325 L125.946938,5.837" id="Fill-12" fill="#006699"></path>
                    <path d="M145.793982,16.801375 L144.30594,10.440125 L143.098289,5.146375 L141.697561,9.905125 L139.695467,16.801375 L145.793982,16.801375 Z M148.433106,0.741375 C150.725429,9.703875 151.276374,11.617625 156.132803,29.065125 L155.931118,29.386375 C152.675871,29.346375 151.878969,29.386375 148.955765,29.515125 L148.665535,29.266375 L146.948752,21.733875 L138.29474,21.733875 L136.323391,29.145125 L136.049148,29.386375 L129.79568,29.386375 L129.637037,29.100125 C135.526489,11.903875 136.810386,7.788875 138.93054,0.866375 L139.21708,0.621375 C143.506578,0.621375 144.30594,0.621375 148.153944,0.497625 L148.433106,0.741375 Z" id="Fill-14" fill="#006699"></path>
                    <path d="M183.022716,0.741875 C182.978444,5.306875 182.936631,9.828125 182.936631,14.393125 C182.936631,19.283125 182.978444,23.276875 183.022716,29.188125 L182.811193,29.386875 C180.69104,29.386875 179.974074,29.386875 177.529257,29.515625 L177.240257,29.309375 L173.678793,24.006875 L169.668457,18.020625 C166.935869,13.980625 166.300069,12.924375 164.419725,9.751875 L164.661993,15.206875 L164.773903,20.220625 L165.179733,29.145625 L164.979278,29.386875 C162.658669,29.386875 161.810116,29.386875 159.124261,29.515625 L158.918886,29.265625 C158.95455,25.314375 159.043095,21.319375 159.043095,17.324375 C159.043095,11.865625 158.918886,7.181875 158.72335,0.866875 L158.918886,0.620625 C161.858078,0.664375 162.372129,0.664375 165.538831,0.498125 L165.817993,0.701875 C166.828878,2.331875 167.416716,3.226875 170.433384,7.875625 L174.077244,13.291875 C176.12484,16.384375 176.320376,16.713125 177.482525,18.706875 L177.328801,11.989375 L177.16155,6.365625 L176.888537,0.866875 L177.081614,0.620625 C179.565784,0.664375 180.248316,0.620625 182.775529,0.498125 L183.022716,0.741875" id="Fill-16" fill="#006699"></path>
                    <path d="M202.804459,22.626625 C203.757544,21.812875 205.656335,19.530375 205.656335,14.435375 C205.656335,5.751625 200.884761,5.751625 198.438714,5.751625 C197.639352,5.751625 196.789569,5.794125 195.992667,5.836625 C195.945935,8.034125 195.945935,10.239125 195.945935,12.435375 C195.945935,16.350375 195.992667,20.137875 196.076293,24.130375 C198.244408,24.130375 201.001591,24.130375 202.804459,22.626625 M189.134144,29.386625 L188.895565,29.225375 C188.964433,25.886625 189.019774,23.481625 189.019774,19.487875 C189.019774,8.207875 188.858671,4.781625 188.69511,0.866625 L188.941067,0.621625 L193.187523,0.577875 C195.029744,0.497875 196.873195,0.416625 198.710497,0.416625 C203.281616,0.416625 208.451642,0.577875 211.157174,5.627875 C212.149612,7.456625 212.999395,10.397875 212.999395,14.234125 C212.999395,16.062875 212.754667,19.322875 211.671225,22.009125 C208.771386,29.266625 201.520561,29.434125 197.036757,29.434125 C195.992667,29.434125 194.906765,29.434125 193.862676,29.386625 L189.134144,29.386625" id="Fill-18" fill="#006699"></path>
                    <path d="M229.228036,16.801375 L227.739994,10.440125 L226.54464,5.146375 L225.132845,9.905125 L223.13813,16.801375 L229.228036,16.801375 Z M231.879457,0.741375 C234.158253,9.703875 234.728874,11.617625 239.570547,29.065125 L239.373781,29.386375 C236.128372,29.346375 235.317943,29.386375 232.405806,29.515125 L232.121726,29.266375 L230.390185,21.733875 L221.723874,21.733875 L219.774662,29.145125 L219.488121,29.386375 L213.262938,29.386375 L213.104296,29.100125 C218.958083,11.903875 220.251819,7.788875 222.381811,0.866375 L222.665891,0.621375 C226.940632,0.621375 227.739994,0.621375 231.592917,0.497625 L231.879457,0.741375 Z" id="Fill-20" fill="#006699"></path>
                    <path d="M249.308125,13.453 C251.306529,13.4105 252.74907,13.33425 253.865717,12.638 C255.356219,11.7055 255.63538,10.19425 255.63538,9.05675 C255.63538,5.4655 252.543695,5.4655 250.972027,5.4655 C250.423542,5.4655 249.85784,5.4655 249.308125,5.51175 L249.308125,13.453 Z M249.217121,18.263 C249.261393,23.1155 249.308125,24.413 249.622951,29.1455 L249.375763,29.38675 C246.09838,29.34675 245.445363,29.38675 242.533227,29.5155 L242.281121,29.2655 C242.410249,25.88675 242.442223,24.05175 242.442223,20.2655 C242.442223,9.1705 242.281121,4.938 242.123708,0.823 L242.325393,0.578 L247.213797,0.578 L250.016483,0.538 C254.7155,0.458 256.877466,0.498 258.955806,1.59925 C262.256555,3.3505 262.732483,7.05425 262.732483,8.84425 C262.732483,14.0305 259.078785,15.7405 257.268538,16.55425 C258.279423,18.3405 258.920142,19.44925 260.195431,21.5155 C263.089121,26.20675 263.528155,26.82175 265.054321,28.81675 L264.809593,29.30925 C263.568738,29.30925 262.2873,29.34675 261.050134,29.38675 C259.805589,29.43425 258.599168,29.5155 257.359542,29.593 L257.036108,29.38675 C254.468312,24.05175 253.865717,22.8255 251.18601,18.17925 L249.217121,18.263 Z" id="Fill-22" fill="#006699"></path>
                    <path d="M282.082447,22.626625 C283.040451,21.812875 284.924485,19.530375 284.924485,14.435375 C284.924485,5.751625 280.149221,5.751625 277.701945,5.751625 C276.901353,5.751625 276.071247,5.794125 275.255898,5.836625 C275.219004,8.034125 275.219004,10.239125 275.219004,12.435375 C275.219004,16.350375 275.255898,20.137875 275.343213,24.130375 C277.508868,24.130375 280.27466,24.130375 282.082447,22.626625 M268.407213,29.386625 L268.176013,29.225375 C268.25103,25.886625 268.283004,23.481625 268.283004,19.487875 C268.283004,8.207875 268.125591,4.781625 267.96203,0.866625 L268.19323,0.621625 L272.453213,0.577875 C274.296664,0.497875 276.141345,0.416625 277.984796,0.416625 C282.562064,0.416625 287.741928,0.577875 290.456068,5.627875 C291.464494,7.456625 292.300749,10.397875 292.300749,14.234125 C292.300749,16.062875 292.048643,19.322875 290.968889,22.009125 C288.041996,29.266625 280.78994,29.434125 276.299987,29.434125 C275.255898,29.434125 274.172455,29.434125 273.143123,29.386625 L268.407213,29.386625" id="Fill-24" fill="#006699"></path>
                    <g id="Group-28" transform="translate(295.148936, 0.000375)">
                        <mask id="mask-4" fill="white">
                            <use xlink:href="#path-3"></use>
                        </mask>
                        <g id="Clip-27"></g>
                        <path d="M13.860317,12.2685 C14.8158617,12.72225 15.8636404,13.2135 16.9446234,14.02975 C19.0561681,15.69975 19.9477638,18.17975 19.9477638,20.50225 C19.9477638,23.9635 18.5064532,27.0685 15.1368362,28.741 C12.7239936,29.87975 9.66920213,30.001 8.48368723,30.001 C5.47070851,30.001 3.11566596,29.3085 2.19086596,28.97975 C1.74568298,28.8585 1.30172979,28.65225 0.874993617,28.496 L0.627806383,28.15975 L0.893440426,22.41475 L1.30172979,22.296 C2.47248723,23.2285 4.51147447,24.861 8.16394255,24.861 C11.6405511,24.861 12.9699511,23.031 12.9699511,21.48975 C12.9699511,19.3235 10.8461085,18.29725 8.07785745,17.1235 L6.76567447,16.51225 C4.51147447,15.411 0.734797872,13.621 0.734797872,8.691 C0.734797872,4.326 3.33948723,-0.00025 10.878083,-0.00025 C14.7826574,-0.00025 16.576917,0.77975 18.2937,1.51475 L18.5064532,1.79975 L18.1842489,7.13725 L17.8325298,7.29975 C16.3420277,6.28475 14.5317809,5.01725 11.4819085,5.01725 C8.83909574,5.01725 7.68924468,6.611 7.68924468,7.87475 C7.68924468,9.7035 9.44538085,10.43975 12.8113085,11.866 L13.860317,12.2685" id="Fill-26" fill="#006699" mask="url(#mask-4)"></path>
                    </g>
                    <path d="M344.426265,16.801375 L342.939452,10.440125 L341.730571,5.146375 L340.329843,9.905125 L338.32652,16.801375 L344.426265,16.801375 Z M347.071537,0.741375 C349.357711,9.703875 349.909886,11.617625 354.770005,29.065125 L354.554792,29.386375 C351.308154,29.346375 350.511252,29.386375 347.584358,29.515125 L347.300277,29.266375 L345.578575,21.733875 L336.923333,21.733875 L334.955673,29.145125 L334.670363,29.386375 L328.429192,29.386375 L328.26932,29.100125 C334.153852,11.903875 335.43406,7.788875 337.562822,0.866375 L337.845673,0.621375 C342.13886,0.621375 342.939452,0.621375 346.786226,0.497625 L347.071537,0.741375 Z" id="Fill-29" fill="#006699"></path>
                    <g id="Group-33" transform="translate(355.408511, 0.000375)">
                        <mask id="mask-6" fill="white">
                            <use xlink:href="#path-5"></use>
                        </mask>
                        <g id="Clip-32"></g>
                        <path d="M13.7444711,12.2685 C14.7024753,12.72225 15.7490243,13.2135 16.8300072,14.02975 C18.9587689,15.69975 19.8294583,18.17975 19.8294583,20.50225 C19.8294583,23.9635 18.3881477,27.0685 15.02222,28.741 C12.6241349,29.87975 9.57672213,30.001 8.37030085,30.001 C5.35117319,30.001 2.99613064,29.3085 2.07379021,28.97975 C1.62983702,28.8585 1.18342426,28.65225 0.75914766,28.496 L0.516879574,28.15975 L0.799730638,22.41475 L1.18342426,22.296 C2.35910085,23.2285 4.39562851,24.861 8.05301574,24.861 C11.5247051,24.861 12.8590243,23.031 12.8590243,21.48975 C12.8590243,19.3235 10.7302626,18.29725 7.9607817,17.1235 L6.64859872,16.51225 C4.39562851,15.411 0.641088085,13.621 0.641088085,8.691 C0.641088085,4.326 3.24454766,-0.00025 10.762237,-0.00025 C14.6680413,-0.00025 16.4561519,0.77975 18.1975306,1.51475 L18.3881477,1.79975 L18.0720923,7.13725 L17.698237,7.29975 C16.2261817,6.28475 14.4183945,5.01725 11.3660626,5.01725 C8.72447957,5.01725 7.57339872,6.611 7.57339872,7.87475 C7.57339872,9.7035 9.32707532,10.43975 12.6966923,11.866 L13.7444711,12.2685" id="Fill-31" fill="#006699" mask="url(#mask-6)"></path>
                    </g>
                    <g id="Group-36" transform="translate(377.544681, 0.000375)">
                        <mask id="mask-8" fill="white">
                            <use xlink:href="#path-7"></use>
                        </mask>
                        <g id="Clip-35"></g>
                        <path d="M13.3193336,12.2685 C14.2908655,12.72225 15.322657,13.2135 16.4220868,14.02975 C18.5336315,15.69975 19.4116996,18.17975 19.4116996,20.50225 C19.4116996,23.9635 17.9863762,27.0685 14.6155294,28.741 C12.201457,29.87975 9.14666553,30.001 7.95992085,30.001 C4.94571234,30.001 2.58575064,29.3085 1.66832936,28.97975 C1.21822723,28.8585 0.781652766,28.65225 0.332780426,28.496 L0.105269787,28.15975 L0.37090383,22.41475 L0.781652766,22.296 C1.95118043,23.2285 3.99139745,24.861 7.64017617,24.861 C11.1180145,24.861 12.4486443,23.031 12.4486443,21.48975 C12.4486443,19.3235 10.317423,18.29725 7.55409106,17.1235 L6.23944851,16.51225 C3.99139745,15.411 0.228248511,13.621 0.228248511,8.691 C0.228248511,4.326 2.81449106,-0.00025 10.3543166,-0.00025 C14.2588911,-0.00025 16.0654485,0.77975 17.7687038,1.51475 L17.9863762,1.79975 L17.6666315,7.13725 L17.2915464,7.29975 C15.8194911,6.28475 14.010474,5.01725 10.9593719,5.01725 C8.31286979,5.01725 7.14211234,6.611 7.14211234,7.87475 C7.14211234,9.7035 8.91915489,10.43975 12.2875421,11.866 L13.3193336,12.2685" id="Fill-34" fill="#006699" mask="url(#mask-8)"></path>
                    </g>
                    <g id="Group-39" transform="translate(398.451064, 0.000375)">
                        <mask id="mask-10" fill="white">
                            <use xlink:href="#path-9"></use>
                        </mask>
                        <g id="Clip-38"></g>
                        <path d="M14.2548328,5.098125 C13.5046626,5.098125 12.4138413,5.256875 11.3303987,5.911875 C9.45743277,7.136875 8.28913489,9.658125 8.28913489,14.555625 C8.28913489,18.221875 8.66053064,24.828125 14.2240881,24.828125 C18.871454,24.828125 20.1651902,20.424375 19.9942498,14.314375 C19.9573562,13.291875 19.8823391,11.823125 19.5699732,10.276875 C19.3141774,9.096875 18.9624583,7.910625 18.1594072,6.975625 C17.1878753,5.794375 15.7822285,5.098125 14.2548328,5.098125 M27.4996413,14.921875 C27.4996413,18.385625 26.6990498,23.928125 22.7256072,27.271875 C20.3681051,29.265625 17.2407562,30.000625 14.1490711,30.000625 C12.0965562,30.000625 7.93126681,29.593125 4.87893489,26.703125 C1.11824553,23.155625 0.798500851,17.939375 0.798500851,15.161875 C0.798500851,13.783125 0.923939149,12.396875 1.15267957,11.010625 C1.46996468,9.303125 2.36033064,4.574375 7.25611362,1.719375 C9.42422851,0.456875 11.9379136,-0.000625 14.4196243,-0.000625 C17.2407562,-0.000625 20.0483604,0.700625 22.0836583,2.085625 C23.0047689,2.694375 23.8090498,3.473125 24.5001902,4.365625 C25.4926285,5.628125 27.4996413,8.524375 27.4996413,14.921875" id="Fill-37" fill="#006699" mask="url(#mask-10)"></path>
                    </g>
                    <g id="Group-42" transform="translate(429.195745, 0.000375)">
                        <mask id="mask-12" fill="white">
                            <use xlink:href="#path-11"></use>
                        </mask>
                        <g id="Clip-41"></g>
                        <path d="M21.8941481,22.253875 L21.6358928,28.325125 L21.437897,28.570125 C20.1441609,29.100125 17.9453013,30.000125 14.576914,30.000125 C4.78288851,30.000125 0.101088511,23.115125 0.101088511,15.290125 C0.101088511,8.155125 3.69821617,-0.001125 14.0911481,-0.001125 C17.6255566,-0.001125 20.0728332,0.938875 21.5104545,1.515125 L21.6703268,1.718875 L21.3112289,7.342625 L20.9435226,7.426375 C19.9486247,6.651375 18.2970204,5.465125 15.2803523,5.465125 C8.75633106,5.465125 7.54745021,11.616375 7.54745021,15.128875 C7.54745021,20.916375 10.762114,24.377625 15.3332332,24.377625 C18.669646,24.377625 20.7061736,22.825125 21.6358928,22.097625 L21.8941481,22.253875" id="Fill-40" fill="#006699" mask="url(#mask-12)"></path>
                    </g>
                    <path d="M461.840939,0.741875 C461.726569,6.365625 461.629415,11.989375 461.629415,17.610625 C461.629415,23.526875 461.726569,25.393125 461.915956,29.145625 L461.684756,29.386875 C458.350803,29.386875 457.534224,29.386875 454.536003,29.515625 L454.339237,29.265625 C454.505258,25.033125 454.575356,22.548125 454.575356,17.736875 C454.575356,7.343125 454.470824,5.256875 454.216258,0.866875 L454.3749,0.620625 C457.274739,0.664375 458.19339,0.664375 461.629415,0.498125 L461.840939,0.741875" id="Fill-43" fill="#006699"></path>
                    <path d="M480.586831,16.801375 L479.104938,10.440125 L477.915734,5.146375 L476.513776,9.905125 L474.510453,16.801375 L480.586831,16.801375 Z M483.239483,0.741375 C485.525657,9.703875 486.092589,11.617625 490.936721,29.065125 L490.735036,29.386375 C487.488397,29.346375 486.695185,29.386375 483.747385,29.515125 L483.478061,29.266375 L481.744061,21.733875 L473.091278,21.733875 L471.138376,29.145125 L470.855525,29.386375 L464.597138,29.386375 L464.429887,29.100125 C470.323027,11.903875 471.616763,7.788875 473.725849,0.866375 L474.013619,0.621375 C478.304346,0.621375 479.104938,0.621375 482.951712,0.497625 L483.239483,0.741375 Z" id="Fill-45" fill="#006699"></path>
                    <path d="M501.795865,5.837 C501.714699,8.4445 501.676576,9.7045 501.676576,11.947 C501.676576,17.69325 501.756512,23.39075 501.949589,29.0995 L501.714699,29.347 C498.378286,29.347 497.581384,29.387 494.624976,29.5145 L494.36918,29.26575 C494.691384,19.1545 494.691384,16.58825 494.65695,5.91325 L488.130469,6.08575 L487.917716,5.837 L488.201797,0.82325 L488.487108,0.57825 L508.330954,0.57825 L508.52772,0.702 L508.24241,5.7945 L508.00752,6.00325 L501.795865,5.837" id="Fill-47" fill="#006699"></path>
                    <path d="M518.688591,0.741875 C518.566843,6.365625 518.493055,11.989375 518.493055,17.610625 C518.493055,23.526875 518.566843,25.393125 518.782055,29.145625 L518.547166,29.386875 C515.218132,29.386875 514.402783,29.386875 511.397183,29.515625 L511.186889,29.265625 C511.35783,25.033125 511.432847,22.548125 511.432847,17.736875 C511.432847,7.343125 511.324626,5.256875 511.084817,0.866875 L511.23977,0.620625 C514.134689,0.664375 515.052111,0.664375 518.493055,0.498125 L518.688591,0.741875" id="Fill-49" fill="#006699"></path>
                    <g id="Group-53" transform="translate(522.659574, 0.000375)">
                        <mask id="mask-14" fill="white">
                            <use xlink:href="#path-13"></use>
                        </mask>
                        <g id="Clip-52"></g>
                        <path d="M13.7120047,5.098125 C12.9507664,5.098125 11.8710132,5.256875 10.7851111,5.911875 C8.90599617,7.136875 7.73646851,9.658125 7.73646851,14.555625 C7.73646851,18.221875 8.10909404,24.828125 13.6800302,24.828125 C18.3298557,24.828125 19.6014557,20.424375 19.437894,14.314375 C19.4059196,13.291875 19.322294,11.823125 19.0000898,10.276875 C18.7516728,9.096875 18.3999536,7.910625 17.5956728,6.975625 C16.6376685,5.794375 15.2381706,5.098125 13.7120047,5.098125 M26.9309877,14.921875 C26.9309877,18.385625 26.1291664,23.928125 22.1741706,27.271875 C19.7969919,29.265625 16.6708728,30.000625 13.5877962,30.000625 C11.5352813,30.000625 7.35892383,29.593125 4.32995787,26.703125 C0.555740851,23.155625 0.237225957,17.939375 0.237225957,15.161875 C0.237225957,13.783125 0.361434468,12.396875 0.607391915,11.010625 C0.927136596,9.303125 1.81381319,4.574375 6.69483872,1.719375 C8.85188553,0.456875 11.386477,-0.000625 13.8755664,-0.000625 C16.6708728,-0.000625 19.4760174,0.700625 21.5150047,2.085625 C22.4619409,2.694375 23.2576132,3.473125 23.9303068,4.365625 C24.9276643,5.628125 26.9309877,8.524375 26.9309877,14.921875" id="Fill-51" fill="#006699" mask="url(#mask-14)"></path>
                    </g>
                    <g id="Group-56" transform="translate(553.404255, 0.000375)">
                        <mask id="mask-16" fill="white">
                            <use xlink:href="#path-15"></use>
                        </mask>
                        <g id="Clip-55"></g>
                        <path d="M24.5951298,0.7415 C24.5643851,5.3065 24.5287213,9.82775 24.5287213,14.39275 C24.5287213,19.28275 24.5643851,23.2765 24.5951298,29.18775 L24.4069723,29.3865 C22.2720617,29.3865 21.5391085,29.3865 19.0979809,29.51525 L18.8175894,29.309 L15.2524362,24.0065 L11.2433298,18.02025 C8.52918936,13.98025 7.87371277,12.924 6.00812553,9.7515 L6.24301489,15.2065 L6.3672234,20.22025 L6.75091702,29.14525 L6.55538085,29.3865 C4.23723191,29.3865 3.40220638,29.3865 0.705282979,29.51525 L0.509746809,29.26525 C0.5491,25.314 0.640104255,21.319 0.640104255,17.324 C0.640104255,11.86525 0.509746809,7.1815 0.303142553,0.8665 L0.509746809,0.62025 C3.44155957,0.664 3.95069149,0.664 7.1284617,0.49775 L7.41008298,0.7015 C8.40498085,2.3315 9.00388723,3.2265 12.0094872,7.87525 L15.6545766,13.2915 C17.6972532,16.384 17.9100064,16.71275 19.0573979,18.7065 L18.9012149,11.989 L18.7450319,6.36525 L18.4560319,0.8665 L18.6687851,0.62025 C21.1529553,0.664 21.8268787,0.62025 24.3663894,0.49775 L24.5951298,0.7415" id="Fill-54" fill="#006699" mask="url(#mask-16)"></path>
                    </g>
                </g>
            </g>
        </g>
    </g>
</svg>